<?xml version="1.0" encoding="UTF-8" standalone="no"?>
<svg
   xmlns:dc="http://purl.org/dc/elements/1.1/"
   xmlns:cc="http://creativecommons.org/ns#"
   xmlns:rdf="http://www.w3.org/1999/02/22-rdf-syntax-ns#"
   xmlns:svg="http://www.w3.org/2000/svg"
   xmlns="http://www.w3.org/2000/svg"
   xmlns:sodipodi="http://sodipodi.sourceforge.net/DTD/sodipodi-0.dtd"
   xmlns:inkscape="http://www.inkscape.org/namespaces/inkscape"
   inkscape:version="1.0 (6e3e5246a0, 2020-05-07)"
   sodipodi:docname="LOGO (3).svg"
   xml:space="preserve"
   style="enable-background:new 0 0 290.3 144.9;"
   viewBox="0 0 290.3 144.9"
   y="0px"
   x="0px"
   id="Layer_1"
   version="1.1"><metadata
   id="metadata99"><rdf:RDF><cc:Work
       rdf:about=""><dc:format>image/svg+xml</dc:format><dc:type
         rdf:resource="http://purl.org/dc/dcmitype/StillImage" /></cc:Work></rdf:RDF></metadata><defs
   id="defs97" /><sodipodi:namedview
   inkscape:current-layer="Layer_1"
   inkscape:window-maximized="1"
   inkscape:window-y="27"
   inkscape:window-x="56"
   inkscape:cy="72.449997"
   inkscape:cx="195.1272"
   inkscape:zoom="4.2438858"
   showgrid="false"
   id="namedview95"
   inkscape:window-height="1016"
   inkscape:window-width="1864"
   inkscape:pageshadow="2"
   inkscape:pageopacity="0"
   guidetolerance="10"
   gridtolerance="10"
   objecttolerance="10"
   borderopacity="1"
   bordercolor="#666666"
   pagecolor="#ffffff" />
<style
   id="style2"
   type="text/css">
	.st0{fill-rule:evenodd;clip-rule:evenodd;}
	.st1{fill:#FFFFFF;}
</style>
<title
   id="title4">LOGO</title>
<path
   d="M 97.099609 0 C 94.699609 0.4 90.899609 3.4996094 89.099609 8.5996094 C 87.423637 13.348197 88.00176 17.92081 89.380859 20.0625 C 89.221101 20.14344 89.059434 20.218988 88.900391 20.300781 C 87.100391 21.100781 85.399219 22.1 83.699219 23 C 81.999219 23.9 80.600781 24.799609 79.300781 25.599609 L 79.154297 25.693359 C 79.279165 25.503316 79.396179 25.307251 79.5 25.099609 C 80.8 23.199609 81.699219 21.000781 82.199219 18.800781 C 83.499219 13.700781 82.900781 8.9003906 81.300781 6.9003906 C 79.700781 7.5003906 78.299219 8.5007812 77.199219 9.8007812 C 75.699219 11.800781 74.599609 14.000391 74.099609 16.400391 C 72.977385 21.450402 74.216018 25.799392 75.853516 27.732422 L 74.800781 28.5 C 74.100781 29 73.000391 29.699609 71.900391 30.599609 C 70.800391 31.499609 69.300391 32.500781 67.900391 33.800781 L 66.71875 34.818359 C 66.816178 34.61286 66.924617 34.410292 67 34.199219 C 67.4 33.199219 67.7 32.199219 68 31.199219 C 68.4 29.999219 68.599219 28.7 68.699219 27.5 C 69.299219 22.2 68.099219 17.600781 66.199219 15.800781 C 63.799219 16.900781 60.699609 20.999609 60.099609 26.599609 C 59.899609 29.099609 60.299219 31.500781 61.199219 33.800781 C 61.749112 35.267163 62.639474 36.560669 63.861328 37.537109 L 63.599609 37.800781 L 62.5 38.800781 L 61.5 39.900391 L 59.699219 42 C 58.599219 43.5 57.399609 44.799609 56.599609 46.099609 L 56.300781 46.546875 C 56.346289 46.302353 56.384475 46.055436 56.400391 45.800781 C 56.900391 43.500781 56.899219 41.100781 56.699219 38.800781 C 56.499219 36.400781 55.9 33.999219 55 31.699219 C 54.4 30.099219 53.4 28.699219 52 27.699219 C 50.6 28.899219 49.500391 30.400781 48.900391 32.300781 C 48.000391 34.800781 47.799609 37.4 48.099609 40 C 48.399609 42.4 49.299219 44.800781 50.699219 46.800781 C 51.624992 48.096864 52.817072 49.119761 54.177734 49.822266 L 53.900391 50.300781 L 54.052734 50.396484 L 53.699219 51 C 53.099219 52 52.5 53.099219 52 54.199219 C 51.3 55.699219 50.599609 57.300391 50.099609 58.900391 C 49.919168 59.441716 49.739036 60.0209 49.558594 60.583984 C 49.542791 60.29317 49.532404 60.00706 49.5 59.699219 C 49.3 58.599219 49.100781 57.5 48.800781 56.5 C 48.500781 55.3 48.199219 54.100391 47.699219 52.900391 C 46.799219 50.600391 45.599219 48.400391 44.199219 46.400391 C 43.299219 44.900391 41.900781 43.799219 40.300781 43.199219 C 39.100781 44.799219 38.400391 46.800781 38.400391 48.800781 C 38.300391 50.100781 38.3 51.299609 38.5 52.599609 C 38.7 53.999609 39.099219 55.299609 39.699219 56.599609 C 40.699219 58.899609 42.300781 60.900391 44.300781 62.400391 C 45.58898 63.320533 47.046744 63.979773 48.595703 64.158203 C 48.564884 64.306597 48.530466 64.447281 48.5 64.599609 C 48.3 65.599609 48.1 66.5 48 67.5 C 47.9 68.5 47.699609 69.400391 47.599609 70.400391 C 47.499691 72.298846 47.400553 73.996988 47.400391 75.496094 C 47.364064 75.432787 47.338927 75.362768 47.300781 75.300781 C 46.200781 73.100781 44.799219 71.200391 43.199219 69.400391 C 41.599219 67.400391 39.800781 65.700781 37.800781 64.300781 C 36.500781 63.200781 34.799609 62.6 33.099609 62.5 C 32.599609 63.9 32.699609 66 33.099609 68.5 C 33.799609 71.1 35.2 73.5 37 75.5 C 40.817031 79.226149 44.705388 80.293341 47.636719 79.859375 C 47.666138 80.235517 47.699219 80.5 47.699219 80.5 L 49 80.300781 C 49 80.300781 48.989161 80.014547 48.958984 79.625 C 51.138773 79.67362 55.702791 77.745555 59.199219 75.099609 C 60.799219 74.099609 62.200391 72.800391 63.400391 71.400391 C 64.200391 70.700391 64.599609 69.599609 64.599609 68.599609 C 62.999609 68.099609 61.299609 67.999219 59.599609 68.199219 C 57.299609 68.399219 55.200781 69.200391 53.300781 70.400391 C 51.500781 71.600391 50 73.299219 49 75.199219 C 48.888929 75.510217 48.805111 75.828665 48.732422 76.148438 C 48.720509 75.925731 48.715638 75.729869 48.699219 75.5 C 48.599219 74.1 48.800391 72.3 48.900391 70.5 C 49.000391 69.6 49.200781 68.699219 49.300781 67.699219 C 49.400781 66.699219 49.600781 65.800391 49.800781 64.900391 C 49.830909 64.764815 49.872267 64.617946 49.90625 64.478516 C 51.327732 64.897743 52.812155 64.975914 54.300781 64.800781 C 56.500781 64.600781 58.700391 64.1 60.900391 63.5 C 61.900391 63.2 62.900391 62.9 63.900391 62.5 C 64.700391 62.2 65.399219 61.800391 66.199219 61.400391 C 67.299219 60.500391 68.099219 59.8 68.199219 59 C 66.799219 58 65.299609 57.3 63.599609 57 C 60.199609 56.2 56.699609 56.700391 53.599609 58.400391 C 52.699609 58.900391 51.899219 59.600781 51.199219 60.300781 C 51.131914 60.356869 51.073313 60.419371 51.009766 60.478516 C 51.142404 60.118976 51.280544 59.75993 51.400391 59.400391 C 51.900391 57.800391 52.500781 56.300781 53.300781 54.800781 C 53.800781 53.700781 54.300391 52.699219 54.900391 51.699219 L 55.542969 50.599609 C 56.707377 51.27726 57.990617 51.765038 59.400391 52 C 61.700391 52.5 64.000781 52.699219 66.300781 52.699219 C 67.400781 52.699219 68.499609 52.6 69.599609 52.5 C 70.499609 52.4 71.299609 52.200391 72.099609 51.900391 C 73.199609 51.800391 74.300391 51.099609 74.900391 50.099609 C 73.800391 48.799609 72.5 47.7 71 47 C 68.9 46 66.700391 45.400781 64.400391 45.300781 C 62.126981 45.201937 59.854789 45.689017 57.871094 46.666016 C 58.655309 45.528414 59.667408 44.307405 60.699219 42.900391 C 61.299219 42.200391 61.899609 41.500781 62.599609 40.800781 L 63.599609 39.699219 L 64.599609 38.699219 L 64.933594 38.380859 C 65.902109 39.509918 67.152849 40.470939 68.5 41.099609 C 70.6 42.099609 72.7 42.900781 75 43.300781 C 76.1 43.500781 77.200781 43.699219 78.300781 43.699219 C 79.200781 43.799219 80.199609 43.699609 81.099609 43.599609 C 82.399609 43.599609 83.5 42.999219 84.5 42.199219 C 83.4 39.899219 79.900391 36.699609 74.900391 35.599609 C 73.700391 35.299609 72.500781 35.199219 71.300781 35.199219 C 70.300781 35.199219 69.300781 35.399609 68.300781 35.599609 C 68.149482 35.629869 68.000315 35.67073 67.851562 35.712891 L 68.800781 34.900391 C 70.200781 33.700391 71.599219 32.700781 72.699219 31.800781 C 73.799219 30.900781 74.899609 30.199219 75.599609 29.699219 L 76.65625 28.931641 C 77.893067 31.158162 81.545822 33.920405 85.800781 35.400391 C 87.800781 36.200391 89.800391 36.599609 91.900391 36.599609 C 93.400391 36.699609 94.700781 36.3 95.800781 35.5 C 95.000781 33.1 91.999609 29.499609 87.099609 27.599609 C 84.999609 26.799609 82.7 26.399609 80.5 26.599609 C 80.367129 26.608467 80.236108 26.643452 80.103516 26.660156 L 80.199219 26.599609 C 81.499219 25.799609 82.9 24.999609 84.5 24.099609 C 86.1 23.199609 87.799609 22.300391 89.599609 21.400391 C 89.692485 21.352626 89.785909 21.311012 89.878906 21.263672 C 90.793997 23.692482 93.93548 26.761602 98.199219 28.800781 C 102.79922 31.000781 106.70078 31.2 108.30078 30 C 107.80078 27.5 105.1 23.599219 100.5 21.199219 C 98.038917 19.915175 95.6212 19.421478 93.630859 19.46875 C 95.734545 18.515543 97.743471 17.675041 99.400391 17 C 102.10039 15.9 103.90039 15.300781 103.90039 15.300781 L 103.74414 14.894531 C 105.74145 16.441429 109.78248 16.947427 114.19922 15.699219 C 118.79922 14.399219 121.89922 11.499609 122.69922 9.0996094 C 121.53047 7.8621094 119.13291 6.8145752 116.15625 6.7675781 C 114.80322 6.7462158 113.33203 6.9316406 111.80078 7.4003906 C 107.09678 8.8403913 104.0582 12.028037 103.55664 14.404297 L 103.40039 14 C 103.40039 14 101.50078 14.700781 98.800781 15.800781 C 97.147612 16.474295 95.108088 17.350534 92.980469 18.330078 C 94.40755 16.82806 95.792994 14.643811 96.800781 11.900391 C 98.600781 7.0003898 98.499609 2.2 97.099609 0 z M 194.09961 0 C 192.69961 2.2 192.6 7.0003898 194.5 11.900391 C 195.57355 14.669022 196.9673 16.868779 198.39062 18.353516 C 196.16514 17.322106 194.02402 16.401278 192.30078 15.699219 C 189.60078 14.599219 187.69922 13.900391 187.69922 13.900391 L 187.5918 14.177734 C 186.95127 11.829289 183.95553 8.7948216 179.40039 7.4003906 C 177.86914 6.9316406 176.39685 6.7462158 175.04688 6.7675781 C 172.07693 6.8145752 169.69961 7.8621094 168.59961 9.0996094 C 169.39961 11.499609 172.5 14.399219 177 15.699219 C 181.18334 16.907739 185.18969 16.473787 187.25977 15.041016 L 187.19922 15.199219 C 187.19922 15.199219 189.10078 15.9 191.80078 17 C 193.4577 17.675041 195.46663 18.515543 197.57031 19.46875 C 195.57971 19.421198 193.16089 19.914866 190.69922 21.199219 C 186.09922 23.599219 183.40039 27.5 182.90039 30 C 184.60039 31.2 188.4 31.000781 193 28.800781 C 197.26374 26.761602 200.40522 23.692482 201.32031 21.263672 C 201.41337 21.31104 201.50668 21.352598 201.59961 21.400391 C 203.39961 22.300391 205.09922 23.199609 206.69922 24.099609 C 208.29922 24.999609 209.7 25.799609 211 26.599609 L 211.12695 26.679688 C 210.9509 26.65403 210.77631 26.61139 210.59961 26.599609 C 208.29961 26.399609 206.1 26.799609 204 27.599609 C 199.3 29.499609 196.20039 33.1 195.40039 35.5 C 196.50039 36.3 197.89961 36.599609 199.09961 36.599609 C 201.19961 36.599609 203.30078 36.200391 205.30078 35.400391 C 209.60327 33.903873 213.29057 31.094503 214.48633 28.855469 C 214.71738 29.02443 215.09961 29.300781 215.09961 29.300781 L 215.15234 29.228516 L 215.80078 29.699219 C 216.50078 30.199219 217.59922 30.900781 218.69922 31.800781 C 219.79922 32.700781 221.19961 33.700391 222.59961 34.900391 L 223.54883 35.714844 C 223.40071 35.672269 223.25207 35.630102 223.09961 35.599609 C 222.09961 35.399609 221 35.199219 220 35.199219 C 218.8 35.199219 217.60039 35.299609 216.40039 35.599609 C 211.40039 36.699609 207.90078 39.899219 206.80078 42.199219 C 207.70078 42.999219 208.90078 43.599609 210.30078 43.599609 C 211.20078 43.699609 212.19961 43.799219 213.09961 43.699219 C 214.19961 43.699219 215.30039 43.500781 216.40039 43.300781 C 218.70039 42.900781 220.80039 42.099609 222.90039 41.099609 C 224.24754 40.470939 225.49828 39.509918 226.4668 38.380859 L 226.80078 38.699219 L 227.80078 39.699219 L 228.80078 40.800781 L 230.69922 42.900391 C 231.79922 44.400391 232.89922 45.700391 233.69922 46.900391 C 233.88389 47.177405 234.02486 47.401782 234.18945 47.65625 C 233.82163 47.328453 233.39436 47.007953 232.90039 46.699219 C 231.10039 45.699219 229.00039 45.200781 226.90039 45.300781 C 224.60039 45.400781 222.40078 46 220.30078 47 C 218.80078 47.8 217.40078 48.799609 216.30078 50.099609 C 216.90078 51.099609 217.9 51.800391 219 51.900391 C 219.8 52.200391 220.7 52.4 221.5 52.5 C 222.6 52.6 223.59922 52.699219 224.69922 52.699219 C 226.89922 52.699219 229.10078 52.5 231.30078 52 C 232.90078 51.7 234.3 51 235.5 50 C 235.56177 49.987645 235.61569 49.968765 235.67578 49.955078 L 235.91602 50.433594 L 235.80078 50.5 L 236.40039 51.699219 C 237.00039 52.699219 237.5 53.700781 238 54.800781 C 238.8 56.300781 239.40039 57.800391 239.90039 59.400391 L 240.25195 60.453125 C 240.20087 60.402715 240.15257 60.348929 240.09961 60.300781 C 239.39961 59.600781 238.59922 58.900391 237.69922 58.400391 C 234.59922 56.700391 231.09922 56.2 227.69922 57 C 225.99922 57.3 224.49961 58 223.09961 59 C 223.19961 59.8 223.99961 60.500391 225.09961 61.400391 C 225.89961 61.800391 226.60039 62.2 227.40039 62.5 C 228.40039 62.9 229.40039 63.2 230.40039 63.5 C 232.50039 64.1 234.8 64.600781 237 64.800781 C 238.48863 64.975914 239.97305 64.897743 241.39453 64.478516 L 241.5 64.900391 C 241.7 65.800391 241.9 66.699219 242 67.699219 C 242.1 68.699219 242.30039 69.6 242.40039 70.5 C 242.50039 72.3 242.69961 74.1 242.59961 75.5 C 242.57409 75.857269 242.56465 76.170216 242.54883 76.507812 C 242.4895 76.083006 242.38277 75.644989 242.19922 75.199219 C 241.29922 73.299219 239.8 71.600391 238 70.400391 C 236.1 69.200391 233.99922 68.399219 231.69922 68.199219 C 229.99922 67.999219 228.29922 68.099609 226.69922 68.599609 C 226.59922 69.599609 226.99922 70.700391 227.69922 71.400391 C 228.89922 72.800391 230.30039 74.099609 231.90039 75.099609 C 235.63555 77.851831 239.36833 79.825578 242.34375 79.607422 C 242.3123 80.006959 242.30078 80.300781 242.30078 80.300781 L 243.69922 80.5 C 243.69922 80.5 243.73097 80.267871 243.75977 79.929688 C 246.25781 80.100026 250.57072 78.929284 254 75.5 C 255.8 73.5 257.20039 71.1 257.90039 68.5 C 258.50039 66 258.69961 63.9 258.09961 62.5 C 256.39961 62.6 254.70039 63.200781 253.40039 64.300781 C 251.40039 65.700781 249.6 67.400391 248 69.400391 C 246.41498 71.358353 244.83994 73.226636 243.98438 74.929688 C 243.96467 73.566012 243.8889 72.074671 243.80078 70.400391 C 243.70078 69.400391 243.50039 68.5 243.40039 67.5 C 243.30039 66.5 243.10039 65.599609 242.90039 64.599609 L 242.79102 64.148438 C 244.30802 63.955697 245.73559 63.303537 247 62.400391 C 249 60.900391 250.59961 58.899609 251.59961 56.599609 C 252.19961 55.299609 252.60078 53.999609 252.80078 52.599609 C 253.00078 51.299609 253.00039 50.100781 252.90039 48.800781 C 252.80039 46.800781 252.2 44.799219 251 43.199219 C 249.4 43.799219 247.99961 44.900391 247.09961 46.400391 C 245.69961 48.400391 244.49961 50.600391 243.59961 52.900391 C 243.09961 54.100391 242.8 55.3 242.5 56.5 C 242.2 57.5 242.00078 58.599219 241.80078 59.699219 C 241.78826 59.93707 241.78379 60.154952 241.77539 60.382812 C 241.61653 59.89139 241.45964 59.376965 241.30078 58.900391 C 240.80078 57.300391 240.10039 55.699219 239.40039 54.199219 C 238.90039 53.099219 238.29922 52 237.69922 51 L 237.36133 50.419922 L 237.59961 50.300781 L 237.09766 49.4375 C 238.18007 48.86934 238.9953 47.984355 239.90039 46.800781 C 241.40039 44.800781 242.40078 42.4 242.80078 40 C 243.20078 37.4 242.89961 34.800781 242.09961 32.300781 C 241.39961 30.100781 240.29922 28.399219 239.19922 27.699219 C 237.79922 28.699219 236.79922 30.099219 236.19922 31.699219 C 235.29922 33.999219 234.7 36.400781 234.5 38.800781 C 234.24446 41.100677 233.92058 43.17899 234.07617 44.919922 C 233.38005 43.998052 232.57013 43.049113 231.80078 42 L 229.90039 39.900391 L 228.90039 38.800781 L 227.80078 37.800781 L 227.37891 37.378906 C 228.46157 36.420625 229.36495 35.195429 229.80078 33.800781 C 230.70078 31.500781 231.10039 29.099609 230.90039 26.599609 C 230.50039 20.999609 227.4 16.900781 225 15.800781 C 223.1 17.600781 221.9 22.2 222.5 27.5 C 222.6 28.7 222.79961 29.999219 223.09961 31.199219 C 223.39961 32.199219 223.69961 33.199219 224.09961 34.199219 C 224.12342 34.2659 224.16339 34.328336 224.18945 34.394531 L 223.5 33.800781 C 222.1 32.500781 220.7 31.499609 219.5 30.599609 C 218.3 29.699609 217.29961 29 216.59961 28.5 L 215.5 27.699219 L 215.40625 27.839844 C 215.37727 27.818543 215.33598 27.78881 215.3125 27.771484 C 216.96663 25.858642 218.22953 21.485016 217.09961 16.400391 C 216.59961 14.000391 215.5 11.800781 214 9.8007812 C 212.9 8.5007814 211.50039 7.5003906 209.90039 6.9003906 C 208.30039 8.9003906 207.7 13.700781 209 18.800781 C 209.5 21.000781 210.39922 23.199609 211.69922 25.099609 C 211.79036 25.281901 211.89059 25.456272 211.99805 25.625 L 211.80078 25.5 C 210.50078 24.7 209.10039 23.800391 207.40039 22.900391 C 205.70039 22.000391 203.99922 20.999219 202.19922 20.199219 C 202.09062 20.143368 201.98004 20.092566 201.87109 20.037109 C 203.28452 17.927738 203.89448 13.303234 202.19922 8.5 C 200.39922 3.4 196.59961 0.4 194.09961 0 z M 145.19922 11.699219 C 144.59922 11.799219 144.00039 12.100391 143.40039 12.400391 C 141.60039 13.400391 142.09961 14.1 141.59961 14.5 C 141.09961 14.9 137.7 14.9 138 16.5 C 138.3 18.1 140.00039 17.900391 140.40039 18.900391 C 140.80039 19.900391 141.00039 24.099609 139.90039 24.599609 C 138.50039 25.399609 137.29922 26.399609 136.19922 27.599609 C 97.999217 30.799609 67.900781 54.399609 65.300781 83.599609 L 225 83.599609 C 222.4 54.399609 192.29961 30.799609 154.09961 27.599609 C 152.99961 26.399609 151.8 25.399609 150.5 24.599609 C 149.4 24.099609 149.7 19.900391 150 18.900391 C 150.3 17.900391 152.10039 18.1 152.40039 16.5 C 152.70039 14.9 149.20078 14.8 148.80078 14.5 C 148.40078 14.2 148.8 13.500391 147 12.400391 C 146.5 12.000391 145.79922 11.799219 145.19922 11.699219 z M 128.5 31.900391 C 106.8 38.000391 85.699609 54.899219 85.099609 80.199219 L 71.099609 80.199219 C 73.499609 56.799219 105.4 34.000391 128.5 31.900391 z M 39.199219 85.900391 L 61.599609 93.300781 L 64.599609 95.300781 L 145.19922 95.300781 L 225.80078 95.300781 L 228.69922 93.300781 L 251.19922 85.900391 L 145.19922 85.900391 L 39.199219 85.900391 z M 0 98.599609 L 12.300781 120.80078 L 0 144.90039 L 145.19922 144.90039 L 290.30078 144.90039 L 278 120.80078 L 290.30078 98.599609 L 145.19922 98.599609 L 0 98.599609 z M 96.003906 107.35352 C 98.505236 107.35352 99.962613 107.91219 102.61328 109.85352 L 104.10547 107.65234 L 105.52539 107.65234 L 106.08398 118.44141 L 104.44141 118.44141 C 103.58274 115.56675 103.02378 114.11091 102.31445 112.87891 C 100.89578 110.48958 98.580127 109.10742 95.966797 109.10742 C 93.577467 109.10742 91.262799 110.41519 90.105469 112.50586 C 88.836139 114.74585 88.277344 117.58211 88.277344 121.80078 C 88.277344 129.82744 90.890686 133.67383 96.416016 133.67383 C 99.440016 133.67383 101.8287 132.36702 103.35938 129.79102 C 104.03136 128.67102 104.48019 127.32633 104.85352 125.34766 L 106.60742 125.64648 C 105.74875 131.91847 101.94013 135.42773 95.966797 135.42773 C 88.612137 135.42773 83.349609 129.679 83.349609 121.65234 C 83.349609 117.80701 84.468092 114.66936 86.857422 111.83203 C 89.396092 108.80803 92.382576 107.35352 96.003906 107.35352 z M 123.32031 107.35352 C 130.48831 107.35352 136.01367 113.47598 136.01367 121.39062 C 136.01367 129.37995 130.48725 135.42773 123.16992 135.42773 C 115.88993 135.42773 110.32814 129.37972 110.32812 121.42773 C 110.32812 117.17173 112.00814 113.13894 114.88281 110.48828 C 117.16014 108.39761 119.99765 107.35352 123.32031 107.35352 z M 246.31641 107.39062 L 247.88477 107.39062 L 257.4043 130.72266 C 258.26296 132.81333 258.67435 133.11328 260.54102 133.11328 L 261.0625 133.11328 L 261.0625 134.86719 L 249.49023 134.86719 L 249.49023 133.11328 L 251.05859 133.11328 C 252.43992 133.11328 253.37305 132.73992 253.37305 132.14258 C 253.37305 131.95592 253.29821 131.69477 253.07422 131.13477 L 251.05859 126.13086 L 241.16406 126.13086 L 239.93359 129.41602 C 239.70959 130.01335 239.59766 130.53637 239.59766 130.98438 C 239.59766 132.40304 240.60509 133.11328 242.62109 133.11328 L 243.36719 133.11328 L 243.36719 134.86719 L 233.47461 134.86719 L 233.47461 133.11328 L 233.62305 133.11328 C 234.63105 133.11328 235.67611 132.66442 236.27344 131.95508 C 236.83344 131.35775 236.9838 131.09758 237.73047 129.15625 L 246.31641 107.39062 z M 31.527344 107.91211 L 44.59375 107.91211 C 47.16975 107.91211 49.483453 108.32364 50.939453 109.07031 C 53.403453 110.30231 54.710936 112.46736 54.710938 115.30469 C 54.710937 118.25402 53.217066 120.64277 50.566406 121.91211 C 49.073066 122.62144 47.318984 122.88281 43.958984 122.88281 L 39.740234 122.88281 L 39.740234 130.27539 L 39.740234 131.35742 C 39.740234 132.92542 40.075609 133.11328 43.099609 133.11328 L 44.070312 133.11328 L 44.070312 134.86719 L 31.527344 134.86719 L 31.527344 133.11328 L 32.199219 133.11328 C 35.223219 133.11328 35.558594 132.92542 35.558594 131.35742 L 35.558594 130.27539 L 35.558594 112.50586 L 35.558594 111.42188 C 35.558594 109.85388 35.223219 109.66797 32.199219 109.66797 L 31.527344 109.66797 L 31.527344 107.91211 z M 54.933594 107.91211 L 66.917969 107.91211 L 66.917969 109.66797 L 64.714844 109.66797 C 63.706844 109.66797 63.257814 109.89162 63.257812 110.37695 C 63.257812 110.63828 63.371252 110.97388 63.669922 111.42188 L 69.941406 121.53906 L 74.570312 113.28906 C 74.980982 112.54239 75.205078 111.90766 75.205078 111.34766 C 75.205078 110.153 74.346299 109.66797 72.292969 109.66797 L 71.435547 109.66797 L 71.435547 107.91211 L 82.037109 107.91211 L 82.037109 109.66797 L 81.738281 109.66797 C 80.506281 109.66797 79.311785 110.1535 78.453125 110.9375 C 77.893125 111.4975 77.407268 112.20611 76.585938 113.66211 L 71.023438 123.70508 L 71.023438 130.27539 L 71.023438 131.35742 C 71.023438 132.96275 71.323656 133.11328 74.347656 133.11328 L 75.318359 133.11328 L 75.318359 134.86719 L 62.511719 134.86719 L 62.511719 133.11328 L 63.482422 133.11328 C 66.506422 133.11328 66.841797 132.92542 66.841797 131.35742 L 66.841797 130.27539 L 66.841797 124.15234 L 58.779297 111.38477 C 57.920627 110.00344 57.359236 109.66797 55.753906 109.66797 L 54.933594 109.66797 L 54.933594 107.91211 z M 149.06836 107.91211 L 162.13477 107.91211 C 164.71077 107.91211 167.02642 108.32364 168.48242 109.07031 C 170.94642 110.30231 172.25195 112.46736 172.25195 115.30469 C 172.25195 118.25402 170.75809 120.64277 168.10742 121.91211 C 166.61409 122.62144 164.85999 122.88281 161.5 122.88281 L 157.28125 122.88281 L 157.28125 130.27539 L 157.28125 131.35742 C 157.28125 132.92542 157.61662 133.11328 160.64062 133.11328 L 161.61133 133.11328 L 161.61133 134.86719 L 149.06836 134.86719 L 149.06836 133.11328 L 149.74023 133.11328 C 152.76423 133.11328 153.09961 132.92542 153.09961 131.35742 L 153.09961 130.27539 L 153.09961 112.50586 L 153.09961 111.42188 C 153.09961 109.85388 152.76422 109.66797 149.74023 109.66797 L 149.06836 109.66797 L 149.06836 107.91211 z M 174.37891 107.91211 L 186.73633 107.91211 L 186.73633 109.66797 L 185.99023 109.66797 C 183.00357 109.66797 182.66797 109.85388 182.66797 111.42188 L 182.66797 112.50586 L 182.66797 130.27539 L 182.66797 131.35742 C 182.66797 132.92542 183.00358 133.11328 185.99023 133.11328 L 186.73633 133.11328 L 186.73633 134.86719 L 174.37891 134.86719 L 174.37891 133.11328 L 175.125 133.11328 C 178.149 133.11328 178.48633 132.92542 178.48633 131.35742 L 178.48633 130.27539 L 178.48633 112.50586 L 178.48633 111.42188 C 178.48633 109.85388 178.149 109.66797 175.125 109.66797 L 174.37891 109.66797 L 174.37891 107.91211 z M 190.85156 107.91211 L 209.36914 107.91211 L 209.36914 109.25781 L 194.02539 133.11328 L 200.22266 133.11328 C 202.64932 133.11328 204.66627 132.40387 205.59961 131.17188 C 206.68227 129.82788 207.31718 127.96027 207.83984 124.48828 L 209.59375 124.48828 L 208.92188 134.86719 L 189.02344 134.86719 L 189.02344 133.52344 L 204.29297 109.66797 L 199.43945 109.66797 C 194.43679 109.66797 192.97983 111.12276 191.78516 117.35742 L 190.10547 117.35742 L 190.85156 107.91211 z M 213.67578 107.91211 L 232.19336 107.91211 L 232.19336 109.25781 L 216.84766 133.11328 L 223.04492 133.11328 C 225.47158 133.11328 227.48854 132.40387 228.42188 131.17188 C 229.50455 129.82788 230.13944 127.96027 230.66211 124.48828 L 232.41602 124.48828 L 231.74414 134.86719 L 211.8457 134.86719 L 211.8457 133.52344 L 227.11523 109.66797 L 222.26172 109.66797 C 217.25905 109.66797 215.80402 111.12276 214.60938 117.35742 L 212.92773 117.35742 L 213.67578 107.91211 z M 123.2832 109.10742 C 120.4832 109.10742 118.50439 110.15302 117.12305 112.31836 C 115.74172 114.55835 115.25586 116.83642 115.25586 121.31641 C 115.25586 125.94574 115.70439 128.18556 117.12305 130.46289 C 118.46705 132.55355 120.51925 133.67383 123.16992 133.67383 C 125.82058 133.67383 127.87476 132.55355 129.21875 130.46289 C 130.60009 128.22289 131.08594 125.94529 131.08594 121.39062 C 131.08594 116.83599 130.60009 114.52102 129.21875 112.31836 C 127.87476 110.26502 125.78453 109.10742 123.2832 109.10742 z M 42.017578 109.66797 C 39.964248 109.66797 39.740234 109.85494 39.740234 111.57227 L 39.740234 121.12891 L 44.257812 121.12891 C 48.215143 121.12891 50.119141 119.30041 50.119141 115.45508 C 50.119141 111.49775 48.28891 109.66797 44.40625 109.66797 L 42.017578 109.66797 z M 159.55859 109.66797 C 157.50526 109.66797 157.28125 109.85494 157.28125 111.57227 L 157.28125 121.12891 L 161.79883 121.12891 C 165.75616 121.12891 167.66016 119.30041 167.66016 115.45508 C 167.66016 111.49775 165.82993 109.66797 161.94727 109.66797 L 159.55859 109.66797 z M 246.05469 113.51367 L 241.91211 124.11523 L 250.27344 124.11523 L 246.05469 113.51367 z "
   id="path6" />











































<g
   transform="translate(9.84487,-2.330896)"
   style="font-style:normal;font-variant:normal;font-weight:normal;font-stretch:normal;font-size:29.3333px;line-height:1.25;font-family:'Century Schoolbook L';-inkscape-font-specification:'Century Schoolbook L, Normal';font-variant-ligatures:normal;font-variant-caps:normal;font-variant-numeric:normal;font-variant-east-asian:normal;fill:#000000;fill-opacity:1;stroke:none"
   id="text103"
   aria-label="PYCO PIZZA" /></svg>
