<svg xmlns="http://www.w3.org/2000/svg" viewBox="0 0 290.33 144.9"><defs><style>.cls-1,.cls-2{fill:#434344;}.cls-1{fill-rule:evenodd;}.cls-3{fill:#fff;}</style></defs><title>LOGO</title><g id="Layer_2" data-name="Layer 2"><g id="Layer_1-2" data-name="Layer 1"><path class="cls-1" d="M154.09,27.62c38.22,3.21,68.31,26.75,70.88,56H65.35c2.57-29.23,32.67-52.77,70.89-56a14.3,14.3,0,0,1,3.71-3c1.1-.49.87-4.74.47-5.72s-2.13-.82-2.45-2.38,3.08-1.63,3.56-2,0-1.06,1.81-2.12a4.82,4.82,0,0,1,1.82-.67,4.71,4.71,0,0,1,1.82.67c1.82,1.06,1.35,1.8,1.82,2.12s3.87.41,3.56,2-2.06,1.39-2.45,2.38-.64,5.23.47,5.72a14.46,14.46,0,0,1,3.71,3Zm-25.54,4.24c-23.09,2.08-55,24.86-57.39,48.27h14C85.65,54.87,106.81,38,128.55,31.86Z"/><polygon class="cls-1" points="39.16 85.88 145.16 85.88 251.17 85.88 228.7 93.35 225.76 95.28 145.16 95.28 64.57 95.28 61.63 93.35 39.16 85.88"/><polygon class="cls-1" points="145.16 144.91 0 144.91 12.28 120.82 0 98.56 145.16 98.56 290.33 98.56 278.05 120.82 290.33 144.91 145.16 144.91"/><path class="cls-2" d="M122.65,9.09c-.78,2.39-3.91,5.27-8.46,6.62s-8.81.7-10.7-1c.33-2.42,3.4-5.84,8.26-7.26S121,7.28,122.65,9.09Z"/><path class="cls-2" d="M76.1,29.32s.39-.3,1.11-.76l3-1.92c1.25-.77,2.74-1.62,4.32-2.54s3.33-1.83,5.1-2.66c3.5-1.78,7.12-3.29,9.83-4.42S104,15.27,104,15.27l-.48-1.33s-1.86.68-4.63,1.77S92.53,18.37,89,20.17c-1.79.84-3.51,1.83-5.15,2.7s-3.12,1.79-4.38,2.57l-3,1.94c-.73.47-1.13.77-1.13.77Z"/><path class="cls-2" d="M108.33,30c-.48-2.51-3.18-6.39-7.77-8.75s-9.06-2.13-10.75-.54c.62,2.47,3.94,5.88,8.46,8.15S106.66,31.2,108.33,30Z"/><path class="cls-2" d="M97.11,0c1.39,2.18,1.51,7-.35,11.93S92,20,89.69,20.47c-1.56-1.94-2.41-6.8-.59-11.87S94.66.37,97.11,0Z"/><path class="cls-2" d="M81.34,6.88c1.63,2,2.24,6.77.94,11.92a20.4,20.4,0,0,1-2.66,6.33,6.7,6.7,0,0,1-3.34,3h0C74.46,26.42,73,21.83,74.2,16.45A16.59,16.59,0,0,1,77.32,9.9,8.52,8.52,0,0,1,81.34,6.88Z"/><path class="cls-2" d="M95.79,35.47c-.77-2.43-3.85-6-8.65-7.85a14.86,14.86,0,0,0-6.6-1,6.48,6.48,0,0,0-4.1,1.75h0c.91,2.34,4.76,5.35,9.41,7A17.35,17.35,0,0,0,92,36.57,5.85,5.85,0,0,0,95.79,35.47Z"/><path class="cls-2" d="M55.05,51.05s.23-.43.65-1.17l1.95-2.94c.82-1.2,1.92-2.51,3-3.95.61-.68,1.24-1.39,1.89-2.1l1-1.08,1-1,2.09-2,2.12-1.85c1.36-1.24,2.77-2.22,3.9-3.14s2.19-1.57,2.88-2.08l1.1-.77-.8-1.17-1.11.78c-.7.52-1.75,1.19-2.92,2.11s-2.59,1.93-4,3.19l-2.17,1.89-2.13,2.07-1.06,1-1,1.1L59.6,42.07c-1.14,1.48-2.26,2.82-3.11,4.06l-2,3-.67,1.2Z"/><path class="cls-2" d="M84.47,42.16c-1.1-2.27-4.62-5.48-9.59-6.6a16.14,16.14,0,0,0-3.57-.38,11.93,11.93,0,0,0-3,.44,5.85,5.85,0,0,0-3.73,2.43,10,10,0,0,0,3.93,3.09A26.56,26.56,0,0,0,75,43.36a21.37,21.37,0,0,0,3.32.42,13.59,13.59,0,0,0,2.77-.1A5.58,5.58,0,0,0,84.47,42.16Z"/><path class="cls-2" d="M66.22,15.83c1.91,1.77,3.08,6.41,2.54,11.73a23.66,23.66,0,0,1-.66,3.69,19.33,19.33,0,0,1-1,3,7.57,7.57,0,0,1-2.75,3.56,8.76,8.76,0,0,1-3-4,15.68,15.68,0,0,1-1.08-7.2C60.69,21,63.82,16.85,66.22,15.83Z"/><path class="cls-2" d="M52.05,27.67a8.7,8.7,0,0,1,3,4,23.88,23.88,0,0,1,1.69,7.09,24.07,24.07,0,0,1-.28,7,6.37,6.37,0,0,1-1.9,4.15h0a9.62,9.62,0,0,1-3.8-3.18,15.42,15.42,0,0,1-2.64-6.84,16.49,16.49,0,0,1,.82-7.68A9.81,9.81,0,0,1,52.05,27.67Z"/><path class="cls-2" d="M74.94,50.08A11.59,11.59,0,0,0,71,47a15.83,15.83,0,0,0-6.59-1.65,14,14,0,0,0-6.61,1.44c-1.6.95-3.22,2.13-3.22,3.26h0a11.61,11.61,0,0,0,4.76,2,30.12,30.12,0,0,0,6.87.71,27.81,27.81,0,0,0,3.32-.19A17.15,17.15,0,0,0,72.05,52,4.72,4.72,0,0,0,74.94,50.08Z"/><path class="cls-2" d="M49,80.31s0-.49-.09-1.34-.12-2.06-.2-3.52.11-3.15.16-5c.13-.9.25-1.83.38-2.78a20.26,20.26,0,0,1,.5-2.85c.22-.94.45-1.89.67-2.82s.59-1.8.86-2.66a38.57,38.57,0,0,1,1.87-4.61,30.75,30.75,0,0,1,1.61-3.13l.65-1.17-1.22-.72-.67,1.2a32.36,32.36,0,0,0-1.66,3.22,40.15,40.15,0,0,0-1.91,4.74c-.29.9-.64,1.8-.9,2.75s-.45,1.94-.68,2.91a19.91,19.91,0,0,0-.52,2.94c-.13,1-.26,1.93-.39,2.86-.06,1.87-.16,3.62-.17,5.12s.16,2.74.21,3.62.09,1.36.09,1.36Z"/><path class="cls-2" d="M68.17,59a12.24,12.24,0,0,0-4.59-2,14.35,14.35,0,0,0-10,1.36,12.74,12.74,0,0,0-2.38,1.88,5.49,5.49,0,0,0-1.86,4,10.53,10.53,0,0,0,5,.5,38,38,0,0,0,6.61-1.31,21.82,21.82,0,0,0,3-1,13.77,13.77,0,0,0,2.27-1.1C67.25,60.53,68.05,59.75,68.17,59Z"/><path class="cls-2" d="M40.27,43.23a8.36,8.36,0,0,1,3.92,3.18,28.32,28.32,0,0,1,3.47,6.48,27.53,27.53,0,0,1,1.14,3.62,18.92,18.92,0,0,1,.67,3.18c.15,1.9.14,3.49-.46,4.5a8.52,8.52,0,0,1-4.66-1.81,14,14,0,0,1-4.64-5.78,17.81,17.81,0,0,1-1.24-4,16.47,16.47,0,0,1-.11-3.82A9.75,9.75,0,0,1,40.27,43.23Z"/><path class="cls-2" d="M33.12,62.46a8.23,8.23,0,0,1,4.72,1.8,25.65,25.65,0,0,1,5.37,5.06,26.74,26.74,0,0,1,4.1,5.86,9.6,9.6,0,0,1,1.23,4.41h0c-3,.76-7.35-.08-11.46-4.24a17.1,17.1,0,0,1-3.9-7C32.69,66,32.57,63.86,33.12,62.46Z"/><path class="cls-2" d="M64.57,68.55a12.87,12.87,0,0,0-5-.42,15,15,0,0,0-6.35,2.19,12.47,12.47,0,0,0-4.3,4.84,9.89,9.89,0,0,0-.4,4.41h0c2,.32,6.92-1.69,10.64-4.46a19.51,19.51,0,0,0,4.24-3.74A3.51,3.51,0,0,0,64.57,68.55Z"/><path class="cls-2" d="M168.59,9.09c.78,2.39,3.9,5.27,8.45,6.62s8.82.7,10.7-1c-.33-2.42-3.4-5.84-8.26-7.26S170.22,7.28,168.59,9.09Z"/><path class="cls-2" d="M215.13,29.32s-.39-.3-1.11-.76l-3-1.92c-1.25-.77-2.74-1.62-4.33-2.54s-3.33-1.83-5.1-2.66c-3.49-1.78-7.11-3.29-9.83-4.42s-4.58-1.75-4.58-1.75l.49-1.33s1.85.68,4.62,1.77,6.4,2.66,9.93,4.46c1.79.84,3.51,1.83,5.16,2.7s3.11,1.79,4.38,2.57l3,1.94c.73.47,1.12.77,1.12.77Z"/><path class="cls-2" d="M182.91,30c.48-2.51,3.18-6.39,7.76-8.75s9.06-2.13,10.75-.54c-.61,2.47-3.94,5.88-8.46,8.15S184.57,31.2,182.91,30Z"/><path class="cls-2" d="M194.12,0c-1.38,2.18-1.5,7,.35,11.93s4.81,8.1,7.07,8.54c1.56-1.94,2.41-6.8.59-11.87S196.58.37,194.12,0Z"/><path class="cls-2" d="M209.89,6.88c-1.62,2-2.23,6.77-.94,11.92a20.16,20.16,0,0,0,2.67,6.33,6.72,6.72,0,0,0,3.33,3h0c1.83-1.74,3.28-6.33,2.08-11.71a16.58,16.58,0,0,0-3.11-6.55A8.58,8.58,0,0,0,209.89,6.88Z"/><path class="cls-2" d="M195.45,35.47c.77-2.43,3.85-6,8.65-7.85a14.82,14.82,0,0,1,6.59-1,6.43,6.43,0,0,1,4.1,1.75h0c-.92,2.34-4.77,5.35-9.41,7a17.42,17.42,0,0,1-6.16,1.17A5.81,5.81,0,0,1,195.45,35.47Z"/><path class="cls-2" d="M236.19,51.05l-.65-1.17c-.47-.71-1.15-1.72-1.95-2.94s-1.92-2.51-3-3.95l-1.88-2.1-1-1.08-1-1-2.08-2-2.13-1.85c-1.35-1.24-2.76-2.22-3.9-3.14s-2.18-1.57-2.87-2.08l-1.1-.77.79-1.17,1.12.78c.7.52,1.74,1.19,2.91,2.11s2.59,1.93,4,3.19l2.17,1.89,2.12,2.07,1.07,1,1,1.1,1.93,2.14c1.14,1.48,2.26,2.82,3.1,4.06l2,3,.68,1.2Z"/><path class="cls-2" d="M206.77,42.16c1.1-2.27,4.62-5.48,9.58-6.6a16.14,16.14,0,0,1,3.57-.38,11.94,11.94,0,0,1,3.06.44,5.85,5.85,0,0,1,3.72,2.43,10,10,0,0,1-3.92,3.09,26.64,26.64,0,0,1-6.5,2.22,21.25,21.25,0,0,1-3.31.42,13.56,13.56,0,0,1-2.77-.1A5.55,5.55,0,0,1,206.77,42.16Z"/><path class="cls-2" d="M225,15.83c-1.92,1.77-3.09,6.41-2.54,11.73a23.7,23.7,0,0,0,.65,3.69,19.33,19.33,0,0,0,1,3,7.64,7.64,0,0,0,2.76,3.56,8.82,8.82,0,0,0,2.95-4,15.55,15.55,0,0,0,1.08-7.2C230.54,21,227.42,16.85,225,15.83Z"/><path class="cls-2" d="M239.19,27.67a8.64,8.64,0,0,0-3,4,23.87,23.87,0,0,0-1.7,7.09c-.25,2.69-.67,5.1-.29,7s.32,3.34,1.32,4.15h0c2-.39,3.13-1.48,4.37-3.18a15.41,15.41,0,0,0,2.94-6.84,16.55,16.55,0,0,0-.68-7.68C241.35,30.13,240.34,28.42,239.19,27.67Z"/><path class="cls-2" d="M216.3,50.08a11.54,11.54,0,0,1,4-3.06,15.87,15.87,0,0,1,6.59-1.65,11.66,11.66,0,0,1,6,1.44c1.6.95,2.64,2.13,2.64,3.26h0a9,9,0,0,1-4.19,2,27.46,27.46,0,0,1-6.57.71,25.29,25.29,0,0,1-3.18-.19,16.14,16.14,0,0,1-2.49-.57A4.5,4.5,0,0,1,216.3,50.08Z"/><path class="cls-2" d="M242.27,80.31s0-.49.08-1.34.12-2.06.2-3.52-.1-3.15-.16-5c-.12-.9-.25-1.83-.38-2.78a20.26,20.26,0,0,0-.5-2.85L240.85,62c-.25-.92-.59-1.8-.87-2.66a38.63,38.63,0,0,0-1.86-4.61,28.59,28.59,0,0,0-1.62-3.13l-.64-1.17,1.22-.72.66,1.2a32.36,32.36,0,0,1,1.66,3.22,40.09,40.09,0,0,1,1.92,4.74c.28.9.64,1.8.89,2.75l.69,2.91a21.28,21.28,0,0,1,.51,2.94c.14,1,.27,1.93.39,2.86.06,1.87.17,3.62.17,5.12s-.16,2.74-.21,3.62-.09,1.36-.09,1.36Z"/><path class="cls-2" d="M223.06,59a12.23,12.23,0,0,1,4.6-2,14.29,14.29,0,0,1,10,1.36,12.42,12.42,0,0,1,2.38,1.88,5.55,5.55,0,0,1,1.87,4,10.56,10.56,0,0,1-5,.5,38.08,38.08,0,0,1-6.62-1.31,21.82,21.82,0,0,1-3-1,13.64,13.64,0,0,1-2.26-1.1C224,60.53,223.19,59.75,223.06,59Z"/><path class="cls-2" d="M251,43.23a8.31,8.31,0,0,0-3.92,3.18,28.32,28.32,0,0,0-3.48,6.48,27.53,27.53,0,0,0-1.14,3.62,18.92,18.92,0,0,0-.67,3.18c-.14,1.9-.13,3.49.46,4.5a8.52,8.52,0,0,0,4.66-1.81,14,14,0,0,0,4.65-5.78,18.34,18.34,0,0,0,1.24-4,17,17,0,0,0,.11-3.82A9.9,9.9,0,0,0,251,43.23Z"/><path class="cls-2" d="M258.11,62.46a8.23,8.23,0,0,0-4.72,1.8A25.65,25.65,0,0,0,248,69.32c-1.74,2.1-3.45,4.11-4.17,5.86a9.87,9.87,0,0,0-1.31,4.41h0c2,.76,7.43-.08,11.54-4.24a17.32,17.32,0,0,0,3.94-7C258.51,66,258.66,63.86,258.11,62.46Z"/><path class="cls-2" d="M226.66,68.55a12.89,12.89,0,0,1,5-.42A15.07,15.07,0,0,1,238,70.32a12.3,12.3,0,0,1,4.22,4.84c.72,1.71.32,3.33.32,4.41h0c-3,.32-6.84-1.69-10.56-4.46a18.91,18.91,0,0,1-4.2-3.74A3.46,3.46,0,0,1,226.66,68.55Z"/><path class="cls-3" d="M87.65,115.9a5.68,5.68,0,0,1,0,8.3,7.54,7.54,0,0,1-5,1.5h-4.8v5.5H76.66V114.4h6A7.54,7.54,0,0,1,87.65,115.9Zm-.87,7.52a4.7,4.7,0,0,0,0-6.73,6.23,6.23,0,0,0-4.1-1.19h-4.8v9.1h4.8A6.28,6.28,0,0,0,86.78,123.42Z"/><path class="cls-3" d="M98.76,125.41v5.79H97.53v-5.79l-6.76-11h1.34l6.07,9.88,6.07-9.88h1.28Z"/><path class="cls-3" d="M110.51,130.21a8.09,8.09,0,0,1-3.12-3.05,8.93,8.93,0,0,1,0-8.73,8.16,8.16,0,0,1,3.12-3.05,8.93,8.93,0,0,1,4.45-1.1,9.41,9.41,0,0,1,3.36.58,7.13,7.13,0,0,1,2.61,1.74l-.76.8a7,7,0,0,0-5.16-2,7.76,7.76,0,0,0-3.84,1,7,7,0,0,0-2.72,2.66,7.78,7.78,0,0,0,0,7.56,7.07,7.07,0,0,0,2.72,2.65,7.76,7.76,0,0,0,3.84,1,7,7,0,0,0,5.16-2l.76.79a7,7,0,0,1-2.62,1.76,9.19,9.19,0,0,1-3.35.6A8.93,8.93,0,0,1,110.51,130.21Z"/><path class="cls-3" d="M127.34,130.2a8.22,8.22,0,0,1-3.13-3.06,8.85,8.85,0,0,1,0-8.69,8.29,8.29,0,0,1,3.13-3.06,9.57,9.57,0,0,1,8.93,0,8.12,8.12,0,0,1,3.13,3.05,8.93,8.93,0,0,1,0,8.73,8,8,0,0,1-3.13,3.05,9.5,9.5,0,0,1-8.93,0Zm8.28-1a7.13,7.13,0,0,0,2.69-2.65,7.78,7.78,0,0,0,0-7.56,7.08,7.08,0,0,0-2.69-2.66,8.08,8.08,0,0,0-7.64,0,7,7,0,0,0-2.7,2.66,7.71,7.71,0,0,0,0,7.56,7,7,0,0,0,2.7,2.65,8.08,8.08,0,0,0,7.64,0Z"/><path class="cls-3" d="M155.78,115.9a5.68,5.68,0,0,1,0,8.3,7.51,7.51,0,0,1-5,1.5H146v5.5h-1.23V114.4h6A7.51,7.51,0,0,1,155.78,115.9Zm-.86,7.52a4.72,4.72,0,0,0,0-6.73,6.24,6.24,0,0,0-4.1-1.19H146v9.1h4.8A6.3,6.3,0,0,0,154.92,123.42Z"/><path class="cls-3" d="M161.71,114.4h1.23v16.8h-1.23Z"/><path class="cls-3" d="M180.53,130.09v1.11H167v-.87l11.59-14.83H167.14v-1.1h13.12v.86L168.7,130.09Z"/><path class="cls-3" d="M196,130.09v1.11H182.49v-.87l11.6-14.83H182.64v-1.1h13.13v.86L184.2,130.09Z"/><path class="cls-3" d="M210.19,126.47h-9.74l-2.14,4.73H197l7.73-16.8h1.22l7.73,16.8h-1.32Zm-.45-1-4.42-9.7-4.39,9.7Z"/></g></g></svg>